<?xml version="1.0" standalone="no"?>
<!DOCTYPE svg PUBLIC "-//W3C//DTD SVG 20010904//EN"
 "http://www.w3.org/TR/2001/REC-SVG-20010904/DTD/svg10.dtd">
<svg version="1.0" xmlns="http://www.w3.org/2000/svg"
 width="512.000000pt" height="512.000000pt" viewBox="0 0 512.000000 512.000000"
 preserveAspectRatio="xMidYMid meet">
<metadata>
Created by potrace 1.14, written by Peter Selinger 2001-2017
</metadata>
<g transform="translate(0.000000,512.000000) scale(0.100000,-0.100000)"
fill="#000000" stroke="none">
<path d="M1995 3827 c-204 -52 -341 -252 -306 -448 6 -34 24 -91 41 -127 16
-35 30 -66 30 -67 0 -14 -199 -165 -250 -189 -60 -29 -73 -31 -170 -31 -98 0
-110 2 -170 32 -80 39 -147 104 -202 197 -79 134 -188 212 -331 236 -163 29
-319 -46 -396 -189 -73 -138 -152 -811 -155 -1331 -1 -222 0 -239 22 -303 41
-117 135 -223 246 -277 104 -50 96 -50 1366 -50 1699 0 2206 20 2555 102 144
33 309 93 461 168 122 59 148 76 196 129 78 84 101 147 101 271 0 76 -6 111
-27 175 -33 95 -80 176 -135 229 l-40 39 -173 23 c-233 32 -406 65 -633 124
-291 76 -269 67 -288 115 -22 52 -57 89 -172 178 -208 161 -438 302 -696 427
l-176 85 -34 64 c-87 169 -273 340 -435 400 -69 26 -166 34 -229 18z m166
-158 c57 -19 194 -116 247 -174 28 -30 72 -89 98 -130 l46 -75 -28 -42 c-16
-23 -68 -83 -116 -133 l-87 -90 -1 51 c-1 129 -73 237 -179 268 -30 9 -64 16
-76 16 -36 0 -121 -29 -149 -51 -32 -25 -40 -21 -60 38 -33 98 -16 184 52 255
69 71 164 96 253 67z m-1469 -417 c59 -29 108 -79 154 -159 79 -138 206 -234
360 -273 91 -24 164 -25 257 -5 105 22 180 65 332 192 232 192 233 193 272
193 25 0 43 -8 64 -30 l30 -29 -3 -118 -3 -117 -80 -43 c-103 -55 -273 -109
-400 -128 -66 -10 -179 -15 -333 -15 l-233 0 -72 55 c-158 118 -327 174 -560
182 -129 5 -147 8 -143 22 2 9 10 48 16 88 16 97 51 152 121 187 46 24 63 27
116 23 34 -3 81 -14 105 -25z m2048 -114 c0 -5 -18 -36 -40 -68 -22 -32 -40
-61 -40 -63 0 -4 22 -19 101 -71 l26 -17 44 67 c24 37 47 72 51 78 8 12 118
-41 118 -57 0 -4 -22 -41 -50 -82 -27 -41 -50 -76 -50 -78 0 -4 22 -19 101
-71 l26 -16 53 80 c29 44 57 83 61 86 7 4 74 -35 108 -63 2 -1 -21 -41 -52
-88 -32 -47 -57 -86 -57 -89 0 -3 23 -19 101 -69 l26 -17 57 85 c65 99 51 99
176 -2 93 -75 110 -104 91 -151 -25 -61 -88 -64 -318 -18 -424 87 -625 54
-809 -129 -63 -63 -90 -100 -128 -173 l-48 -93 -56 6 c-246 29 -799 124 -829
143 -8 5 -129 234 -151 284 -2 5 72 8 165 8 178 0 318 16 446 50 291 77 568
261 756 502 l52 67 35 -16 c19 -9 34 -21 34 -25z m-2025 -372 c153 -53 268
-130 358 -241 49 -61 338 -618 326 -629 -3 -4 -75 -2 -160 4 -85 6 -344 13
-576 17 l-423 6 0 69 c0 146 26 498 56 752 l7 58 166 -4 c148 -4 175 -7 246
-32z m3172 -350 c179 -50 328 -83 542 -120 l183 -32 -39 -26 c-100 -66 -231
-117 -366 -143 -141 -27 -1718 -18 -1745 10 -9 9 57 113 101 162 34 36 73 65
125 90 l76 38 161 -1 c140 -1 180 -5 320 -34 209 -43 310 -45 380 -9 29 14 63
43 80 66 17 23 35 40 42 38 6 -2 69 -20 140 -39z m945 -277 c32 -63 48 -130
48 -200 0 -99 -50 -168 -164 -226 l-69 -35 -731 5 c-402 3 -787 10 -856 16
-311 27 -478 46 -800 91 -190 27 -418 56 -508 66 l-164 18 -49 99 c-28 54 -48
102 -45 105 3 3 70 -7 148 -22 565 -109 1022 -140 1958 -133 549 4 590 5 670
25 180 44 327 111 460 211 30 23 59 40 65 38 5 -2 22 -28 37 -58z m-3462 -403
c291 -24 449 -42 830 -96 630 -90 875 -109 1490 -117 420 -6 458 -8 391 -19
-40 -7 -168 -20 -285 -28 -423 -30 -847 -37 -2091 -34 l-1230 3 -63 34 c-94
51 -152 133 -167 235 l-8 49 469 -6 c278 -3 548 -12 664 -21z"/>
</g>
</svg>
